<svg xmlns="http://www.w3.org/2000/svg" xmlns:xlink="http://www.w3.org/1999/xlink" xmlns:fi="http://pattern.flaticon.com/" x="0" y="0" width="700" height="350" viewBox="0 0 700 350"><rect x="0px" y="0px" width="100%" height="100%" opacity="1" fill="none" fill-rule="evenodd"/><defs><g fill="#413346" transform="matrix(0.11719093471765518 0 0 0.11719093471765518 264 285.00000014305556)" id="L1_9"><path d="m296.491 483.232c6.066 0 11-4.934 11-11s-4.934-11-11-11-11 4.934-11 11 4.934 11 11 11z"/><path d="m248.36 483.232c6.066 0 11-4.934 11-11s-4.934-11-11-11-11 4.934-11 11 4.935 11 11 11z"/><path d="m199.839 483.232c6.066 0 11-4.934 11-11s-4.934-11-11-11-11 4.934-11 11 4.934 11 11 11z"/><path d="m372.748 371.805c-3.804-1.634-8.215.123-9.853 3.928-7.691 17.888-25.59 29.906-44.539 29.906-9.984 0-9.456 15.075.496 14.99v12.597h-141.431v-13.009c6.365.83 12.541 1.129 18.122 1.129 9.385 0 9.813-15 0-15-16.594 0-39.119-2.833-52.192-16.333-8.519-8.797-10.638-20.327-10.638-32.103v-180.173c0-9.385-15-9.813-15 0v180.055c-.907 29.529 16.532 51.504 44.708 59.41v16.024h-2.105c-4.142 0-7.5 3.358-7.5 7.5v14.731l-17.805 10.28c-4.915 2.837-4.914 10.153 0 12.99l17.805 10.28v14.731c0 4.142 3.358 7.5 7.5 7.5h175.642c4.142 0 7.5-3.358 7.5-7.5v-14.699l17.86-10.311c4.914-2.838 4.914-10.153 0-12.99l-17.86-10.312v-14.699c0-4.142-3.358-7.5-7.5-7.5h-2.105v-14.629c18.69-4.949 34.922-18.565 42.823-36.94 1.636-3.805-.122-8.217-3.928-9.853zm-44.29 124.432h-160.642v-48.011h160.642z"/><path d="m358.309 219.177c-.026-.027-.053-.054-.08-.08-2.334-2.293-4.992-4.228-7.86-5.774v-179.847c0-43.583-69.415-43.694-69.415 0v136.764c-15.614-10.667-37.874-6.543-48.539 9.125-11.546-12.428-31.304-14.605-45.289-5.051v-62.692c0-43.583-69.414-43.694-69.414 0v27.453c0 9.385 15 9.813 15 0v-27.453c0-24.312 39.414-24.409 39.414 0v90.854 91.42c0 10.297 3.853 19.01 11.141 25.198 13.472 11.437 35.788 10.924 48.578-1.33 6.145 9.78 17.023 16.298 29.4 16.298h.008c1.484 0 2.953-.105 4.405-.293-4.331 13.108-4.315 23.756-4.307 24.502.101 9.776 15.043 9.636 15-.134-.001-.252.087-25.476 17.466-42.933 11.444-11.496 28.027-17.325 49.288-17.325 6.58 0 9.951-8.237 5.257-12.849l-20.692-20.335c-1.402-1.378-3.29-2.151-5.257-2.151h-36.158c-25.284 0-25.325-38.478 0-38.478h47.371c5.23 0 10.348 2.075 14.051 5.694l41.775 42.31c8.5 8.608 10.221 21.891 4.184 32.301-.149.258-.284.525-.402.8l-15.297 35.577c-3.708 8.622 9.905 14.941 13.78 5.925l15.129-35.186c9.141-16.183 6.409-36.66-6.72-49.957zm-151.496 93.188c-10.752 0-19.687-7.298-19.687-18.469v-91.42c0-24.824 39.414-24.864 39.414 0v91.42c.001 14.579-12.4 18.469-19.727 18.469zm119.201-28.268c-11.371 1.708-21.407 5.22-30.059 10.488v-17.042h23.391zm-74.465-40.792c0 17.102 12.775 31.314 29.406 33.84v22.21c0 25.237-39.414 25.72-39.414 0v-100.953c0-24.824 39.414-24.864 39.414 0v11.063c-16.631 2.525-29.406 16.738-29.406 33.84zm44.406-34.239v-175.59c0-24.312 39.415-24.41 39.415 0v175.635c-13.08-.663-26.32-.045-39.415-.045z"/><path d="m86.392 218.125h-30.714l2.926-57.092c.41-8.004-10.84-10.838-14.269-3.593l-43.629 92.159c-2.317 4.894 1.365 10.709 6.779 10.709h27.185l-5.454 54.173c-.792 7.87 10.213 11.254 14.021 4.39l49.715-89.607c2.725-4.914-.94-11.139-6.56-11.139zm-38.604 61.622 2.637-26.188c.446-4.43-3.275-8.251-7.462-8.251h-23.63l22.352-47.214-1.391 27.147c.24 4.772 2.737 7.4 7.49 7.884h25.871z"/><path d="m510.947 221.82c-1.348-2.29-3.806-3.695-6.463-3.695h-30.714l2.926-57.092c.41-8.004-10.84-10.838-14.269-3.593l-43.629 92.159c-2.317 4.894 1.365 10.709 6.779 10.709h27.185l-5.455 54.173c-.792 7.87 10.213 11.254 14.021 4.39l49.715-89.607c1.289-2.323 1.253-5.155-.096-7.444zm-45.067 57.927 2.637-26.187c.446-4.43-3.275-8.251-7.462-8.251h-23.629l22.352-47.215-1.391 27.148c-.105 2.053.637 4.059 2.053 5.55 1.416 1.49 3.382 2.334 5.438 2.334h25.87z"/></g><g fill="#413346" transform="matrix(0.1171875 0 0 0.1171875 21 144)" id="L1_10"><path d="M286,451.29c-5.52,0-10,4.48-10,10c0,5.52,4.48,10,10,10c5.52,0,10-4.48,10-10S291.52,451.29,286,451.29z"/><path d="M145.5,200.29c-5.523,0-10,4.477-10,10v191c0,5.523,4.477,10,10,10s10-4.477,10-10v-191    C155.5,204.767,151.023,200.29,145.5,200.29z"/><path d="M225.5,200.29c-5.523,0-10,4.477-10,10v191c0,5.523,4.477,10,10,10s10-4.477,10-10v-191    C235.5,204.767,231.023,200.29,225.5,200.29z"/><path d="M426.5,161h-50v-30.259c15.675-11.751,23.125-31.613,18.707-51.224c-4.133-18.39-19.313-33.398-37.768-37.345    c-9.811-2.105-19.692-1.36-28.695,2.063C319.716,30.002,303.862,21,286.5,21c-6.544,0-12.939,1.269-18.852,3.711    C250.91,8.922,228.843,0,206,0c-30.216,0-58.396,15.393-75.03,40.579C78.7,37.687,35.5,79.156,35.5,130.29v120    c0,16.542,13.682,30,30.5,30c3.689,0,7.224-0.671,10.5-1.893V462c0,27.57,22.43,50,50,50h200c27.57,0,50-22.43,50-50v-30h50    c27.57,0,50-22.43,50-50V211C476.5,183.43,454.07,161,426.5,161z M356.5,452h-30.51c-5.523,0-10,4.477-10,10s4.477,9.9,10,9.9    h28.79c-4.128,11.639-15.244,20.1-28.28,20.1h-200c-13.036,0-24.152-8.361-28.28-20h147.79c5.523,0,10-4.477,10-10    s-4.477-10-10-10H96.5V250.07v-70.564c22.463-3.391,41.914-17.538,52.14-38.505c2.086,0,3.924,0.722,5.309,2.081    c11.286,11.098,26.22,17.209,42.051,17.209c16.408,0,31.725-6.495,43.135-18.295c0.61-0.632,1.473-0.995,2.365-0.995    c15.567,0,25.753,3.325,30.277,9.881c3.729,5.405,3.726,12.915,3.723,18.95v40.459c0,13.036,8.361,24.152,20,28.28v162.72    c0,5.523,4.477,10,10,10s10-4.477,10-10V238.57c11.639-4.128,20-15.243,20-28.28v-70.464c7.005,1.398,14.154,1.407,21,0.007V452z     M330.033,116.947c-3.1-1.577-6.796-1.43-9.762,0.389c-2.965,1.818-4.772,5.046-4.772,8.524v84.43c0,5.514-4.486,10-10,10    c-5.514,0-10-4.486-10-10v-40.452c0.003-7.876,0.008-19.779-7.261-30.315C279.759,127.232,264.034,121,241.5,121    c-6.29,0-12.396,2.589-16.749,7.099c-7.602,7.862-17.813,12.191-28.751,12.191c-10.553,0-20.507-4.073-28.035-11.477    c-5.133-5.039-11.996-7.813-19.325-7.813c-7.579,0-14.623,4.397-17.946,11.202c-8.382,17.164-25.35,27.927-44.28,28.089    c-5.489,0.047-9.915,4.51-9.915,10v79.525C76.147,255.705,71.568,260.29,66,260.29c-5.691,0-10.5-4.58-10.5-10v-120    c0-38.596,31.582-69.852,70.407-69.852c3.017,0,6.05,0.192,9.081,0.581c4.045,0.519,7.998-1.471,9.993-5.026    C157.437,33.792,180.818,20,206,20c19.73,0,38.752,8.615,52.187,23.637c3.256,3.642,8.668,4.398,12.799,1.785    C275.559,42.529,280.924,41,286.5,41c12.73,0,24.108,8.061,28.313,20.057c1.023,2.92,3.341,5.203,6.277,6.181    c2.935,0.978,6.159,0.542,8.729-1.182c6.816-4.57,15.134-6.107,23.429-4.327c10.8,2.31,20.03,11.428,22.446,22.179    C381.386,109.172,355.489,129.896,330.033,116.947z M376.5,221h40v151h-40V221z M456.5,382c0,16.542-13.458,30-30,30h-50v-20h50    c5.523,0,10-4.477,10-10V211c0-5.523-4.477-10-10-10h-50v-20h50c16.542,0,30,13.458,30,30V382z"/></g><g stroke-width="2" fill="#413346" transform="matrix(0.12096773833036423 0 0 0.12096773833036423 134 23)" id="L1_11"><path d="M476,208h-0.688l-11.4-11.4C462.088,87.888,373.144,0,264,0h-32C122.856,0,33.912,87.888,32.088,196.6l-11.672,11.664    C8.88,210,0,219.984,0,232c0,13.232,10.768,24,24,24h8.632c1.048,7.272,3.48,14.248,7.216,20.544C29.76,285.84,24,297.104,24,308    c0,13.064,5.752,24.776,14.824,32.848L37.352,340C33.848,346.048,32,352.968,32,360c0,10.776,4.328,20.528,11.28,27.728    C36.528,391.976,32,399.448,32,408v32c0,30.88,25.12,56,56,56h320c30.88,0,56-25.12,56-56v-32c0-8.552-4.528-16.024-11.28-20.272    c6.952-7.2,11.28-16.952,11.28-27.728c0-7.032-1.848-13.952-5.352-20l-1.464,0.848C466.248,332.776,472,321.064,472,308    c0-12.592-5.424-23.472-15.68-31.76c4.976-8.512,7.68-18.224,7.68-28.24h12c11.024,0,20-8.976,20-20S487.024,208,476,208z M40,308    c0-6.416,4.048-13.752,10.952-20H120v16h16v-16h184v100c0,6.616-5.384,12-12,12c-6.616,0-12-5.384-12-12v-56    c0-15.44-12.56-28-28-28s-28,12.56-28,28v104c0,6.616-5.384,12-12,12c-6.616,0-12-5.384-12-12v-80c0-15.44-12.56-28-28-28    s-28,12.56-28,28v40c0,6.616-5.384,12-12,12c-6.616,0-12-5.384-12-12v-76h-16v14.704c-6.176-1.856-11.648-5.72-15.336-11.272    L98,313.376l-6.664,10.056C86.112,331.304,77.392,336,68,336C52.56,336,40,323.44,40,308z M97.888,264l16-8h27.056l8-16h14.112    l8,16h34.712l8-24h21.288l8,16H264v16h37.768l8-24h5.288l8,16h33.888l8-16h15.744l16,16h32.256l7.104-14.216l11.76,3.92    c0.048,0.768,0.192,1.52,0.192,2.296c0,8.744-2.984,17.088-8.2,24H56.2c-4.792-6.344-7.576-13.896-8.008-21.864L64,243.816V264    H97.888z M278,340.16c0.624,0.576,1.344,1.048,2,1.592V384h-24v-32.76C264.256,349.712,271.88,345.888,278,340.16z M256,334.704    V332c0-6.616,5.384-12,12-12c1.752,0,3.4,0.392,4.896,1.072l-1.568,2.36C267.648,328.984,262.176,332.848,256,334.704z M200,356    v28h-24v-28c0-6.616,5.384-12,12-12C194.616,344,200,349.384,200,356z M120,351.248V384H96H72c-13.232,0-24-10.768-24-24    c0-4.016,1.072-7.936,2.976-11.432C56.216,350.776,61.968,352,68,352c11.28,0,21.944-4.304,30-11.832    C104.12,345.888,111.744,349.72,120,351.248z M448,440c0,22.056-17.944,40-40,40H88c-22.056,0-40-17.944-40-40v-32    c0-4.408,3.592-8,8-8h16h24h24.408c1.96,13.536,13.528,24,27.592,24c14.064,0,25.632-10.464,27.592-24H200v36    c0,15.44,12.56,28,28,28s28-12.56,28-28v-36h26.808c4.512,9.424,14.064,16,25.192,16s20.68-6.576,25.192-16H352h72h16    c4.408,0,8,3.592,8,8V440z M424,384h-72h-16v-42.104c0.68-0.56,1.352-1.136,2-1.736c8.056,7.536,18.712,11.84,30,11.84    c11.28,0,21.944-4.304,30-11.832c8.056,7.528,18.72,11.832,30,11.832c6.032,0,11.784-1.224,17.024-3.432    C446.928,352.064,448,355.984,448,360C448,373.232,437.232,384,424,384z M428,336c-9.392,0-18.112-4.696-23.336-12.568    L398,313.376l-6.664,10.056C386.112,331.304,377.392,336,368,336c-9.392,0-18.112-4.696-23.336-12.568L338,313.384l-2,3.016V288    h109.456c7.088,5.368,10.544,11.928,10.544,20C456,323.44,443.44,336,428,336z M476,232h-18.704l-29.344-9.784L419.056,240    h-15.744l-16-16h-32.256l-8,16h-14.112l-8-16h-26.712l-8,24H280v-16h-27.056l-8-16h-42.712l-8,24h-13.288l-8-16h-33.888l-8,16    h-20.944l-16,8H80v-27.816L30.464,240H24c-4.408,0-8-3.592-8-8s3.592-8,8-8h3.312l16-16H408v-16H48.168    C52.376,94.24,133.224,16,232,16h32c98.776,0,179.624,78.24,183.832,176H424v16h28.688l16,16H476c2.208,0,4,1.792,4,4    S478.208,232,476,232z"/><rect x="232px" y="40px" width="16px" height="16px"/><rect x="288px" y="64px" width="16px" height="16px"/><rect x="352px" y="72px" width="16px" height="16px"/><rect x="248px" y="104px" width="16px" height="16px"/><rect x="184px" y="80px" width="16px" height="16px"/><rect x="160px" y="48px" width="16px" height="16px"/><rect x="120px" y="96px" width="16px" height="16px"/></g></defs><g fi:class="KUsePattern"><pattern id="pattern_L1_9" width="350" height="350" patternUnits="userSpaceOnUse"><use xlink:href="#L1_9" x="-350" y="-350"/><use xlink:href="#L1_9" x="0" y="-350"/><use xlink:href="#L1_9" x="350" y="-350"/><use xlink:href="#L1_9" x="-350" y="0"/><use xlink:href="#L1_9" x="0" y="0"/><use xlink:href="#L1_9" x="350" y="0"/><use xlink:href="#L1_9" x="-350" y="350"/><use xlink:href="#L1_9" x="0" y="350"/><use xlink:href="#L1_9" x="350" y="350"/></pattern><rect x="0" y="0" width="100%" height="100%" fill="url(#pattern_L1_9)"/></g><g fi:class="KUsePattern"><pattern id="pattern_L1_11" width="350" height="350" patternUnits="userSpaceOnUse"><use xlink:href="#L1_11" x="-350" y="-350"/><use xlink:href="#L1_11" x="0" y="-350"/><use xlink:href="#L1_11" x="350" y="-350"/><use xlink:href="#L1_11" x="-350" y="0"/><use xlink:href="#L1_11" x="0" y="0"/><use xlink:href="#L1_11" x="350" y="0"/><use xlink:href="#L1_11" x="-350" y="350"/><use xlink:href="#L1_11" x="0" y="350"/><use xlink:href="#L1_11" x="350" y="350"/></pattern><rect x="0" y="0" width="100%" height="100%" fill="url(#pattern_L1_11)"/></g><g fi:class="KUsePattern"><pattern id="pattern_L1_10" width="350" height="350" patternUnits="userSpaceOnUse"><use xlink:href="#L1_10" x="-350" y="-350"/><use xlink:href="#L1_10" x="0" y="-350"/><use xlink:href="#L1_10" x="350" y="-350"/><use xlink:href="#L1_10" x="-350" y="0"/><use xlink:href="#L1_10" x="0" y="0"/><use xlink:href="#L1_10" x="350" y="0"/><use xlink:href="#L1_10" x="-350" y="350"/><use xlink:href="#L1_10" x="0" y="350"/><use xlink:href="#L1_10" x="350" y="350"/></pattern><rect x="0" y="0" width="100%" height="100%" fill="url(#pattern_L1_10)"/></g></svg>