<svg xmlns="http://www.w3.org/2000/svg" xmlns:xlink="http://www.w3.org/1999/xlink" xmlns:fi="http://pattern.flaticon.com/" x="0" y="0" width="600" height="300" viewBox="0 0 700 350"><rect x="0px" y="0px" width="100%" height="100%" opacity="1" fill="none"/><defs><g opacity="0.5" fill="#413346" transform="matrix(0.12096773833036423 0 0 0.12096773833036423 128 261)" id="L1_0"><path d="M476,208h-0.688l-11.4-11.4C462.088,87.888,373.144,0,264,0h-32C122.856,0,33.912,87.888,32.088,196.6l-11.672,11.664    C8.88,210,0,219.984,0,232c0,13.232,10.768,24,24,24h8.632c1.048,7.272,3.48,14.248,7.216,20.544C29.76,285.84,24,297.104,24,308    c0,13.064,5.752,24.776,14.824,32.848L37.352,340C33.848,346.048,32,352.968,32,360c0,10.776,4.328,20.528,11.28,27.728    C36.528,391.976,32,399.448,32,408v32c0,30.88,25.12,56,56,56h320c30.88,0,56-25.12,56-56v-32c0-8.552-4.528-16.024-11.28-20.272    c6.952-7.2,11.28-16.952,11.28-27.728c0-7.032-1.848-13.952-5.352-20l-1.464,0.848C466.248,332.776,472,321.064,472,308    c0-12.592-5.424-23.472-15.68-31.76c4.976-8.512,7.68-18.224,7.68-28.24h12c11.024,0,20-8.976,20-20S487.024,208,476,208z M40,308    c0-6.416,4.048-13.752,10.952-20H120v16h16v-16h184v100c0,6.616-5.384,12-12,12c-6.616,0-12-5.384-12-12v-56    c0-15.44-12.56-28-28-28s-28,12.56-28,28v104c0,6.616-5.384,12-12,12c-6.616,0-12-5.384-12-12v-80c0-15.44-12.56-28-28-28    s-28,12.56-28,28v40c0,6.616-5.384,12-12,12c-6.616,0-12-5.384-12-12v-76h-16v14.704c-6.176-1.856-11.648-5.72-15.336-11.272    L98,313.376l-6.664,10.056C86.112,331.304,77.392,336,68,336C52.56,336,40,323.44,40,308z M97.888,264l16-8h27.056l8-16h14.112    l8,16h34.712l8-24h21.288l8,16H264v16h37.768l8-24h5.288l8,16h33.888l8-16h15.744l16,16h32.256l7.104-14.216l11.76,3.92    c0.048,0.768,0.192,1.52,0.192,2.296c0,8.744-2.984,17.088-8.2,24H56.2c-4.792-6.344-7.576-13.896-8.008-21.864L64,243.816V264    H97.888z M278,340.16c0.624,0.576,1.344,1.048,2,1.592V384h-24v-32.76C264.256,349.712,271.88,345.888,278,340.16z M256,334.704    V332c0-6.616,5.384-12,12-12c1.752,0,3.4,0.392,4.896,1.072l-1.568,2.36C267.648,328.984,262.176,332.848,256,334.704z M200,356    v28h-24v-28c0-6.616,5.384-12,12-12C194.616,344,200,349.384,200,356z M120,351.248V384H96H72c-13.232,0-24-10.768-24-24    c0-4.016,1.072-7.936,2.976-11.432C56.216,350.776,61.968,352,68,352c11.28,0,21.944-4.304,30-11.832    C104.12,345.888,111.744,349.72,120,351.248z M448,440c0,22.056-17.944,40-40,40H88c-22.056,0-40-17.944-40-40v-32    c0-4.408,3.592-8,8-8h16h24h24.408c1.96,13.536,13.528,24,27.592,24c14.064,0,25.632-10.464,27.592-24H200v36    c0,15.44,12.56,28,28,28s28-12.56,28-28v-36h26.808c4.512,9.424,14.064,16,25.192,16s20.68-6.576,25.192-16H352h72h16    c4.408,0,8,3.592,8,8V440z M424,384h-72h-16v-42.104c0.68-0.56,1.352-1.136,2-1.736c8.056,7.536,18.712,11.84,30,11.84    c11.28,0,21.944-4.304,30-11.832c8.056,7.528,18.72,11.832,30,11.832c6.032,0,11.784-1.224,17.024-3.432    C446.928,352.064,448,355.984,448,360C448,373.232,437.232,384,424,384z M428,336c-9.392,0-18.112-4.696-23.336-12.568    L398,313.376l-6.664,10.056C386.112,331.304,377.392,336,368,336c-9.392,0-18.112-4.696-23.336-12.568L338,313.384l-2,3.016V288    h109.456c7.088,5.368,10.544,11.928,10.544,20C456,323.44,443.44,336,428,336z M476,232h-18.704l-29.344-9.784L419.056,240    h-15.744l-16-16h-32.256l-8,16h-14.112l-8-16h-26.712l-8,24H280v-16h-27.056l-8-16h-42.712l-8,24h-13.288l-8-16h-33.888l-8,16    h-20.944l-16,8H80v-27.816L30.464,240H24c-4.408,0-8-3.592-8-8s3.592-8,8-8h3.312l16-16H408v-16H48.168    C52.376,94.24,133.224,16,232,16h32c98.776,0,179.624,78.24,183.832,176H424v16h28.688l16,16H476c2.208,0,4,1.792,4,4    S478.208,232,476,232z"/><rect x="232px" y="40px" width="16px" height="16px"/><rect x="288px" y="64px" width="16px" height="16px"/><rect x="352px" y="72px" width="16px" height="16px"/><rect x="248px" y="104px" width="16px" height="16px"/><rect x="184px" y="80px" width="16px" height="16px"/><rect x="160px" y="48px" width="16px" height="16px"/><rect x="120px" y="96px" width="16px" height="16px"/></g><g opacity="0.5" fill="#413346" transform="matrix(0.1171875 0 0 0.1171875 312 5)" id="L1_1"><path d="M286,451.29c-5.52,0-10,4.48-10,10c0,5.52,4.48,10,10,10c5.52,0,10-4.48,10-10S291.52,451.29,286,451.29z"/><path d="M145.5,200.29c-5.523,0-10,4.477-10,10v191c0,5.523,4.477,10,10,10s10-4.477,10-10v-191    C155.5,204.767,151.023,200.29,145.5,200.29z"/><path d="M225.5,200.29c-5.523,0-10,4.477-10,10v191c0,5.523,4.477,10,10,10s10-4.477,10-10v-191    C235.5,204.767,231.023,200.29,225.5,200.29z"/><path d="M426.5,161h-50v-30.259c15.675-11.751,23.125-31.613,18.707-51.224c-4.133-18.39-19.313-33.398-37.768-37.345    c-9.811-2.105-19.692-1.36-28.695,2.063C319.716,30.002,303.862,21,286.5,21c-6.544,0-12.939,1.269-18.852,3.711    C250.91,8.922,228.843,0,206,0c-30.216,0-58.396,15.393-75.03,40.579C78.7,37.687,35.5,79.156,35.5,130.29v120    c0,16.542,13.682,30,30.5,30c3.689,0,7.224-0.671,10.5-1.893V462c0,27.57,22.43,50,50,50h200c27.57,0,50-22.43,50-50v-30h50    c27.57,0,50-22.43,50-50V211C476.5,183.43,454.07,161,426.5,161z M356.5,452h-30.51c-5.523,0-10,4.477-10,10s4.477,9.9,10,9.9    h28.79c-4.128,11.639-15.244,20.1-28.28,20.1h-200c-13.036,0-24.152-8.361-28.28-20h147.79c5.523,0,10-4.477,10-10    s-4.477-10-10-10H96.5V250.07v-70.564c22.463-3.391,41.914-17.538,52.14-38.505c2.086,0,3.924,0.722,5.309,2.081    c11.286,11.098,26.22,17.209,42.051,17.209c16.408,0,31.725-6.495,43.135-18.295c0.61-0.632,1.473-0.995,2.365-0.995    c15.567,0,25.753,3.325,30.277,9.881c3.729,5.405,3.726,12.915,3.723,18.95v40.459c0,13.036,8.361,24.152,20,28.28v162.72    c0,5.523,4.477,10,10,10s10-4.477,10-10V238.57c11.639-4.128,20-15.243,20-28.28v-70.464c7.005,1.398,14.154,1.407,21,0.007V452z     M330.033,116.947c-3.1-1.577-6.796-1.43-9.762,0.389c-2.965,1.818-4.772,5.046-4.772,8.524v84.43c0,5.514-4.486,10-10,10    c-5.514,0-10-4.486-10-10v-40.452c0.003-7.876,0.008-19.779-7.261-30.315C279.759,127.232,264.034,121,241.5,121    c-6.29,0-12.396,2.589-16.749,7.099c-7.602,7.862-17.813,12.191-28.751,12.191c-10.553,0-20.507-4.073-28.035-11.477    c-5.133-5.039-11.996-7.813-19.325-7.813c-7.579,0-14.623,4.397-17.946,11.202c-8.382,17.164-25.35,27.927-44.28,28.089    c-5.489,0.047-9.915,4.51-9.915,10v79.525C76.147,255.705,71.568,260.29,66,260.29c-5.691,0-10.5-4.58-10.5-10v-120    c0-38.596,31.582-69.852,70.407-69.852c3.017,0,6.05,0.192,9.081,0.581c4.045,0.519,7.998-1.471,9.993-5.026    C157.437,33.792,180.818,20,206,20c19.73,0,38.752,8.615,52.187,23.637c3.256,3.642,8.668,4.398,12.799,1.785    C275.559,42.529,280.924,41,286.5,41c12.73,0,24.108,8.061,28.313,20.057c1.023,2.92,3.341,5.203,6.277,6.181    c2.935,0.978,6.159,0.542,8.729-1.182c6.816-4.57,15.134-6.107,23.429-4.327c10.8,2.31,20.03,11.428,22.446,22.179    C381.386,109.172,355.489,129.896,330.033,116.947z M376.5,221h40v151h-40V221z M456.5,382c0,16.542-13.458,30-30,30h-50v-20h50    c5.523,0,10-4.477,10-10V211c0-5.523-4.477-10-10-10h-50v-20h50c16.542,0,30,13.458,30,30V382z"/></g><g opacity="0.5" fill="#413346" transform="matrix(0.11719093471765518 0 0 0.11719093471765518 71.00001250303637 87.00001522108766)" id="L1_3"><path d="m66.727 367.787-6.024 6.024c-7.143 7.144-7.143 18.766 0 25.909l32.52 32.52c3.46 3.46 8.061 5.365 12.954 5.365s9.494-1.905 12.954-5.365l6.024-6.024c3.46-3.461 5.366-8.062 5.366-12.954 0-4.894-1.906-9.494-5.366-12.953l-32.52-32.521c-7.144-7.143-18.766-7.142-25.908-.001zm48.793 45.475c0 .513-.126 1.501-.973 2.347l-6.025 6.025c-.846.846-1.833.972-2.347.972s-1.501-.126-2.348-.973l-32.52-32.52c-.846-.846-.972-1.834-.972-2.347 0-.514.126-1.502.972-2.348l6.024-6.024c.647-.647 1.497-.971 2.348-.971.85 0 1.7.323 2.347.97l32.52 32.521c.848.847.974 1.834.974 2.348z"/><path d="m122.859 332.868c.846-.846 1.833-.972 2.347-.972s1.501.126 2.347.972l2.985 2.985c2.929 2.93 7.678 2.929 10.606.001 2.929-2.929 2.93-7.678.001-10.606l-2.985-2.986c-3.46-3.46-8.061-5.365-12.954-5.365-4.894 0-9.494 1.905-12.954 5.365l-6.024 6.024c-3.46 3.46-5.367 8.061-5.367 12.954s1.906 9.494 5.366 12.954l32.52 32.519c3.46 3.461 8.061 5.366 12.954 5.366s9.494-1.905 12.954-5.365l6.025-6.024c7.142-7.143 7.142-18.765-.001-25.908l-3.875-3.874c-2.929-2.928-7.678-2.929-10.606.001-2.929 2.929-2.928 7.678.001 10.606l3.874 3.873c1.294 1.295 1.294 3.401.001 4.695l-6.025 6.023c-.846.847-1.834.973-2.348.973-.513 0-1.501-.126-2.347-.973l-32.521-32.52c-.846-.846-.972-1.833-.972-2.347s.126-1.501.973-2.347z"/><path d="m181.04 413.504.217-.237c2.797-3.055 2.588-7.799-.466-10.596-3.055-2.798-7.799-2.59-10.597.467l-.217.237c-2.797 3.055-2.588 7.799.466 10.596 1.439 1.318 3.254 1.969 5.063 1.969 2.032-.001 4.055-.82 5.534-2.436z"/><path d="m136.44 436.762-.217.237c-2.797 3.055-2.588 7.799.466 10.596 1.439 1.318 3.254 1.969 5.063 1.969 2.03 0 4.054-.819 5.533-2.436l.217-.237c2.797-3.055 2.588-7.799-.466-10.596-3.055-2.798-7.799-2.59-10.596.467z"/><path d="m160.184 427.167c-2.784 3.066-2.556 7.81.511 10.594l.223.202c1.437 1.305 3.241 1.947 5.039 1.947 2.041 0 4.075-.828 5.555-2.459 2.784-3.066 2.556-7.81-.511-10.594l-.223-.202c-3.067-2.784-7.81-2.555-10.594.512z"/><path d="m508.201 39.608-17.206-17.206c-3.313-3.312-8.171-4.569-12.673-3.284l-23.77 6.789c-3.983 1.138-6.29 5.289-5.152 9.271 1.137 3.983 5.291 6.287 9.271 5.152l22.587-6.451 14.365 14.364-18.054 9.896c-5.081 2.785-9.456 6.52-13.003 11.099l-20.35 26.262c-13.045-6.22-24.712-.04-30.431 4.122l-21.635-21.636 10.325-21.607 21.323-6.089c3.983-1.138 6.29-5.288 5.152-9.271s-5.288-6.289-9.271-5.152l-22.229 6.348c-3.555 1.016-6.508 3.511-8.103 6.848l-11.368 23.791c-1.03 2.155-1.416 4.498-1.201 6.774l-148.323 142.715c-6.455-8.608-9.457-16.862-8.909-24.595.625-8.803 5.762-17.333 15.27-25.354 6.139-5.179 8.142-13.362 5.104-20.849-3.044-7.504-10.198-11.988-18.231-11.422-15.107 1.063-29.474 8.308-42.7 21.533-14.873 14.873-21.714 32.246-27.751 47.573-8.598 21.832-15.389 39.075-41.996 44.424-30.471 6.124-52.623 15.135-69.714 28.358-3.276 2.534-3.877 7.245-1.343 10.521 1.478 1.91 3.695 2.911 5.938 2.91 1.603 0 3.218-.512 4.584-1.568 15.404-11.917 34.985-19.786 63.491-25.517 34.614-6.957 43.959-30.686 52.996-53.632 5.77-14.649 11.735-29.797 24.401-42.463 10.597-10.597 21.749-16.376 33.146-17.178 2.058-.143 2.937 1.253 3.28 2.099.339.836.676 2.434-.877 3.744-12.541 10.579-19.65 22.943-20.56 35.757-.846 11.923 3.531 24.051 12.996 36.121l-54.456 52.397c-2.52 2.424-3.925 5.685-3.959 9.181-.034 3.495 1.31 6.781 3.781 9.252l26.359 26.359c2.441 2.441 5.677 3.78 9.125 3.78h.129c3.496-.034 6.755-1.44 9.178-3.959l11.818-12.282c11.256 16.782 30.228 28.283 54.395 16.255 2.188-1.092 3.581.169 4.217 1.018.735.98 1.299 2.487-.192 4.105-.3.326-.613.65-.938.977-6.753 6.753-17.531 11.679-27.953 16.443-10.921 4.991-21.236 9.706-28.326 16.797-6.869 6.868-8.386 17.179-10.144 29.116-2.435 16.544-5.466 37.133-24.045 55.711-15.605 15.606-38.075 22.63-63.275 19.778-25.833-2.924-51.329-15.802-71.79-36.264-17.933-17.933-30.243-40.33-34.664-63.068-4.265-21.934-1.063-43.223 9.016-59.947 2.138-3.548.995-8.157-2.553-10.295-3.549-2.138-8.157-.995-10.295 2.553-11.999 19.914-15.867 44.97-10.893 70.556 5.058 26.012 18.468 50.498 38.782 70.813 22.853 22.853 51.516 37.257 80.71 40.561 4.262.482 8.462.722 12.588.722 24.748 0 46.779-8.597 62.979-24.797 22.09-22.089 25.667-46.39 28.279-64.134 1.369-9.303 2.552-17.337 5.91-20.695 5.178-5.178 14.299-9.347 23.955-13.76 11.631-5.317 23.659-10.814 32.324-19.479.472-.472.925-.944 1.359-1.415 6.048-6.558 6.526-16.13 1.162-23.277-5.418-7.218-14.832-9.457-22.897-5.443-9.597 4.777-17.922 4.533-25.447-.737-5.29-3.706-9.143-9.111-11.546-13.229l183.866-191.089c2.661-.109 5.301-1.035 7.515-2.823 6.048-4.881 11.752-5.893 16.953-3.004 5.482 3.044 12.537 1.57 16.409-3.43l21.405-27.622c2.28-2.943 5.091-5.343 8.356-7.132l20.498-11.236c3.598-1.972 5.994-5.432 6.575-9.492.583-4.065-.748-8.059-3.649-10.962zm-107.554 68.088-13.892 14.438-15.947-15.947 14.438-13.893zm-37.138 38.597-16.86-16.86 13.347-12.842 16.356 16.355zm-23.245 24.157-17.773-17.773 13.347-12.842 17.268 17.269zm-23.244 24.158-18.686-18.686 13.347-12.842 18.181 18.182zm-23.245 24.158-19.599-19.599 13.347-12.842 19.095 19.095zm-23.245 24.158-20.512-20.512 13.347-12.842 20.008 20.008zm-23.245 24.158-21.426-21.425 13.347-12.842 20.921 20.921zm-23.245 24.159-22.339-22.339 13.347-12.843 21.834 21.834zm-25.636 26.642-23.345-23.346 15.831-15.232 22.747 22.747z"/></g><g opacity="0.5" fill="#413346" transform="matrix(0.1171875 0 0 0.1171875 237.0000026955354 161)" id="L1_8"><path d="m334.224 390.372a345.994 345.994 0 0 0 -45.481 11.817 191.515 191.515 0 0 0 -24.418 10c-9.188-8.464-36.465-31.146-65.434-31.617a6 6 0 0 0 -.2 12c22.2.361 44.5 17.165 54.634 25.924-10.586 6.994-16.982 14.581-19.085 22.7a6 6 0 1 0 11.617 3.008c5.136-19.833 58.209-36.3 90.455-42.014a6 6 0 0 0 -2.092-11.817z"/><path d="m102.8 380.264a6 6 0 1 0 -11.2 4.3l36.721 95.565a6 6 0 0 0 11.2-4.305z"/><path d="m95.364 360.925-7.263-18.9a6 6 0 0 0 -11.2 4.3l7.264 18.9a6 6 0 1 0 11.2-4.3z"/><path d="m410.967 88.777a34.642 34.642 0 0 0 -43.067 22.881c-.03.1-.057.194-.082.292l-26.548 104.218v-2.3a42.461 42.461 0 0 0 -42.393-42.432 41.485 41.485 0 0 0 -29.8 12.436 42.2 42.2 0 0 0 -7 9.446 38.762 38.762 0 0 0 -31.926-16.818 39.289 39.289 0 0 0 -36.171 24.911 15.1 15.1 0 0 0 -12.341 2.862c-1.414 1.108-3.047 2.4-4.823 3.827l-26.068-163.892a40.579 40.579 0 0 0 -45.525-33.857c-.063.008-.125.017-.188.028a34.055 34.055 0 0 0 -28.061 39.245l14.508 90.756a6 6 0 1 0 11.85-1.895l-14.517-90.809a22.054 22.054 0 0 1 18.068-25.44 28.618 28.618 0 0 1 32.017 23.882l27.173 170.835c-8.787 7.431-19.1 16.637-28.835 26.517q-8.259 8.383-14.563 16.019l-11.351-71a6 6 0 0 0 -11.849 1.895l13.2 82.582c-5.8 8.944-9.127 16.9-9.93 23.8-3.231 27.764 35.6 126.891 59.028 183.509a35.068 35.068 0 0 0 32.5 21.725h166.35a27.775 27.775 0 0 0 23.451-12.815c34.049-52.94 24.014-183.9 22.758-198.663a88.084 88.084 0 0 1 1.286-24.282l26.743-137.75a34.519 34.519 0 0 0 -23.894-39.713zm-142.038 125.508a30.392 30.392 0 0 1 8.7-22 29.567 29.567 0 0 1 21.246-8.853 30.448 30.448 0 0 1 30.393 30.432v118.746a30.164 30.164 0 0 1 -60.327.328l-.026-118.653zm-38.778-25.785a26.84 26.84 0 0 1 26.792 26.828v119.537a26.793 26.793 0 1 1 -53.585 0v-49.5l1.137-1.613a70.156 70.156 0 0 0 12.505-31.941c2.539-21.461-5.846-35.71-12.693-43.506a27.168 27.168 0 0 1 25.844-19.805zm192.93-62.3-26.744 137.75a100.174 100.174 0 0 0 -1.463 27.587c4.431 52.044 5.016 150.871-20.893 191.154a15.821 15.821 0 0 1 -13.358 7.309h-166.35a23.107 23.107 0 0 1 -21.41-14.317c-38.54-93.123-60.3-159.491-58.2-177.534 2.473-21.251 40.039-57.546 74.37-84.426a3.1 3.1 0 0 1 4.108.25c6.647 6.448 14.113 18 11.933 36.428a58.137 58.137 0 0 1 -10.4 26.441l-6.343 9.008a80.16 80.16 0 0 0 -13.831 57.687 6 6 0 1 0 11.88-1.693 68.267 68.267 0 0 1 4.981-36.98v30a38.778 38.778 0 0 0 71.985 20.076 42.146 42.146 0 0 0 77.924-22.33v-67.822l38.13-149.722a22.574 22.574 0 0 1 43.681 11.134z"/></g></defs><g fi:class="KUsePattern"><pattern id="pattern_L1_1" width="350" height="350" patternUnits="userSpaceOnUse"><use xlink:href="#L1_1" x="-350" y="-350"/><use xlink:href="#L1_1" x="0" y="-350"/><use xlink:href="#L1_1" x="350" y="-350"/><use xlink:href="#L1_1" x="-350" y="0"/><use xlink:href="#L1_1" x="0" y="0"/><use xlink:href="#L1_1" x="350" y="0"/><use xlink:href="#L1_1" x="-350" y="350"/><use xlink:href="#L1_1" x="0" y="350"/><use xlink:href="#L1_1" x="350" y="350"/></pattern><rect x="0" y="0" width="100%" height="100%" fill="url(#pattern_L1_1)"/></g><g fi:class="KUsePattern"><pattern id="pattern_L1_3" width="350" height="350" patternUnits="userSpaceOnUse"><use xlink:href="#L1_3" x="-350" y="-350"/><use xlink:href="#L1_3" x="0" y="-350"/><use xlink:href="#L1_3" x="350" y="-350"/><use xlink:href="#L1_3" x="-350" y="0"/><use xlink:href="#L1_3" x="0" y="0"/><use xlink:href="#L1_3" x="350" y="0"/><use xlink:href="#L1_3" x="-350" y="350"/><use xlink:href="#L1_3" x="0" y="350"/><use xlink:href="#L1_3" x="350" y="350"/></pattern><rect x="0" y="0" width="100%" height="100%" fill="url(#pattern_L1_3)"/></g><g fi:class="KUsePattern"><pattern id="pattern_L1_8" width="350" height="350" patternUnits="userSpaceOnUse"><use xlink:href="#L1_8" x="-350" y="-350"/><use xlink:href="#L1_8" x="0" y="-350"/><use xlink:href="#L1_8" x="350" y="-350"/><use xlink:href="#L1_8" x="-350" y="0"/><use xlink:href="#L1_8" x="0" y="0"/><use xlink:href="#L1_8" x="350" y="0"/><use xlink:href="#L1_8" x="-350" y="350"/><use xlink:href="#L1_8" x="0" y="350"/><use xlink:href="#L1_8" x="350" y="350"/></pattern><rect x="0" y="0" width="100%" height="100%" fill="url(#pattern_L1_8)"/></g><g fi:class="KUsePattern"><pattern id="pattern_L1_0" width="350" height="350" patternUnits="userSpaceOnUse"><use xlink:href="#L1_0" x="-350" y="-350"/><use xlink:href="#L1_0" x="0" y="-350"/><use xlink:href="#L1_0" x="350" y="-350"/><use xlink:href="#L1_0" x="-350" y="0"/><use xlink:href="#L1_0" x="0" y="0"/><use xlink:href="#L1_0" x="350" y="0"/><use xlink:href="#L1_0" x="-350" y="350"/><use xlink:href="#L1_0" x="0" y="350"/><use xlink:href="#L1_0" x="350" y="350"/></pattern><rect x="0" y="0" width="100%" height="100%" fill="url(#pattern_L1_0)"/></g></svg>